<?xml version="1.0" encoding="UTF-8" standalone="no"?><!-- Generator: Gravit.io --><svg xmlns="http://www.w3.org/2000/svg" xmlns:xlink="http://www.w3.org/1999/xlink" style="isolation:isolate" viewBox="0 0 100 100" width="100pt" height="100pt"><defs><clipPath id="_clipPath_ySbXAwnf1TLglPU1aaq0EAq41m11Z9lk"><rect width="100" height="100"/></clipPath></defs><g clip-path="url(#_clipPath_ySbXAwnf1TLglPU1aaq0EAq41m11Z9lk)"><path d=" M 82.402 97.042 L 50.847 77.948 L 19.938 98.069 L 28.347 62.159 L -0.341 38.98 L 36.41 35.881 L 49.589 1.434 L 63.894 35.429 L 100.727 37.319 L 72.817 61.428 L 82.402 97.042 Z " fill="rgb(255,26,26)"/><g><path d=" M 37.419 64.849 L 35.635 65.729 L 35.349 67.698 L 33.961 66.273 L 32 66.61 L 32.926 64.849 L 32 63.088 L 33.961 63.424 L 35.349 62 L 35.635 63.969 L 37.419 64.849 Z " fill="rgb(255,255,255)"/><path d=" M 53.436 31.658 L 52.381 33.344 L 53.171 35.17 L 51.241 34.687 L 49.75 36.003 L 49.613 34.019 L 47.9 33.007 L 49.745 32.263 L 50.178 30.321 L 51.456 31.846 L 53.436 31.658 Z " fill="rgb(255,255,255)"/></g><g><path d=" M 52.782 15.476 L 51.726 17.162 L 52.517 18.987 L 50.587 18.504 L 49.095 19.821 L 48.958 17.836 L 47.246 16.824 L 49.091 16.08 L 49.524 14.139 L 50.801 15.664 L 52.782 15.476 Z " fill="rgb(255,255,255)"/></g><g><path d=" M 48.156 67.875 L 47.34 69.689 L 48.371 71.39 L 46.393 71.173 L 45.094 72.68 L 44.689 70.732 L 42.855 69.962 L 44.582 68.975 L 44.747 66.992 L 46.22 68.33 L 48.156 67.875 Z " fill="rgb(255,255,255)"/><path d=" M 37.161 44.389 L 37.419 46.361 L 39.19 47.267 L 37.394 48.122 L 37.079 50.086 L 35.711 48.642 L 33.746 48.95 L 34.697 47.203 L 33.797 45.429 L 35.752 45.793 L 37.161 44.389 Z " fill="rgb(255,255,255)"/><path d=" M 68.772 51 L 69.716 52.751 L 71.694 52.965 L 70.321 54.404 L 70.729 56.351 L 68.935 55.49 L 67.209 56.48 L 67.474 54.508 L 66 53.172 L 67.957 52.815 L 68.772 51 Z " fill="rgb(255,255,255)"/></g><g><path d=" M 59.536 45.655 L 58.481 47.341 L 59.271 49.167 L 57.342 48.684 L 55.85 50 L 55.713 48.015 L 54 47.003 L 55.845 46.26 L 56.278 44.318 L 57.556 45.843 L 59.536 45.655 Z " fill="rgb(255,255,255)"/><path d=" M 74.994 83.239 L 74.61 85.191 L 76 86.614 L 74.025 86.851 L 73.101 88.613 L 72.265 86.808 L 70.304 86.474 L 71.762 85.121 L 71.474 83.152 L 73.211 84.121 L 74.994 83.239 Z " fill="rgb(255,255,255)"/></g><g><path d=" M 31.454 85.185 L 29.67 86.066 L 29.384 88.034 L 27.996 86.61 L 26.035 86.946 L 26.961 85.185 L 26.035 83.424 L 27.996 83.761 L 29.384 82.336 L 29.67 84.305 L 31.454 85.185 Z " fill="rgb(255,255,255)"/></g><g><path d=" M 18.627 42.337 L 17.572 44.023 L 18.362 45.849 L 16.432 45.366 L 14.941 46.682 L 14.804 44.697 L 13.091 43.685 L 14.936 42.942 L 15.369 41 L 16.647 42.525 L 18.627 42.337 Z " fill="rgb(255,255,255)"/></g><g><path d=" M 66.61 69.831 L 64.826 70.711 L 64.54 72.68 L 63.152 71.255 L 61.191 71.592 L 62.117 69.831 L 61.191 68.07 L 63.152 68.406 L 64.54 66.982 L 64.826 68.951 L 66.61 69.831 Z " fill="rgb(255,255,255)"/><path d=" M 81.184 42.337 L 80.129 44.023 L 80.919 45.849 L 78.99 45.366 L 77.498 46.682 L 77.361 44.697 L 75.648 43.685 L 77.493 42.942 L 77.926 41 L 79.204 42.525 L 81.184 42.337 Z " fill="rgb(255,255,255)"/></g></g></svg>