<?xml version="1.0" encoding="UTF-8" standalone="no"?><!-- Generator: Gravit.io --><svg xmlns="http://www.w3.org/2000/svg" xmlns:xlink="http://www.w3.org/1999/xlink" style="isolation:isolate" viewBox="0 0 60 70" width="60pt" height="70pt"><g><g><path d=" M 25.966 38.693 L 13.15 11.637 L 22.011 11.637 L 34.927 38.693 L 25.966 38.693 Z " fill="rgb(147,74,255)"/><path d=" M 21.533 12.389 L 33.734 37.942 L 26.442 37.942 L 14.335 12.389 L 21.534 12.389 M 22.484 10.886 L 11.963 10.886 L 25.491 39.445 L 36.118 39.445 L 22.484 10.886 Z " fill="rgb(126,65,218)"/><path d=" M 25.074 38.693 L 37.991 11.637 L 46.851 11.637 L 34.034 38.693 L 25.074 38.693 Z " fill="rgb(147,74,255)"/><path d=" M 45.665 12.389 L 33.558 37.942 L 26.266 37.942 L 38.467 12.389 L 45.665 12.389 Z  M 48.037 10.886 L 37.516 10.886 L 23.882 39.445 L 34.509 39.445 L 48.037 10.886 Z " fill="rgb(126,65,218)"/><path d=" M 18.917 34.156 L 42.966 39.268 C 44.549 39.604 45.561 41.162 45.225 42.746 L 42.239 56.791 C 41.903 58.374 40.344 59.386 38.761 59.05 L 14.713 53.938 C 13.13 53.601 12.118 52.043 12.454 50.46 L 15.439 36.414 C 15.776 34.831 17.334 33.819 18.917 34.156 Z " fill="rgb(126,65,218)"/><path d=" M 18.917 34.156 L 42.966 39.268 C 44.549 39.604 45.561 41.162 45.225 42.746 L 42.239 56.791 C 41.903 58.374 40.344 59.386 38.761 59.05 L 14.713 53.938 C 13.13 53.601 12.118 52.043 12.454 50.46 L 15.439 36.414 C 15.776 34.831 17.334 33.819 18.917 34.156 Z " fill="none"/></g><g><rect x="27.11" y="40.975" width="2.025" height="10.662" transform="matrix(0.97,0.242,-0.242,0.97,12.038,-5.428)" fill="rgb(147,74,255)"/><path d="M 25.299 39.339 L 33.989 41.56 C 34.336 41.649 34.536 41.992 34.436 42.327 L 34.436 42.327 C 34.336 42.662 33.972 42.861 33.625 42.772 L 24.936 40.551 C 24.589 40.462 24.388 40.118 24.488 39.784 L 24.488 39.784 C 24.589 39.449 24.952 39.25 25.299 39.339 Z" style="stroke:none;fill:#934AFF;stroke-miterlimit:10;"/><path d="M 22.558 49.785 L 31.399 52.038 C 31.747 52.127 31.959 52.471 31.872 52.806 L 31.872 52.806 C 31.784 53.14 31.431 53.34 31.082 53.251 L 22.242 50.998 C 21.893 50.909 21.681 50.565 21.769 50.23 L 21.769 50.23 C 21.856 49.896 22.21 49.696 22.558 49.785 Z" style="stroke:none;fill:#934AFF;stroke-miterlimit:10;"/></g></g><path d=" M 22.594 37.798 L 21.966 38.108 L 21.865 38.802 L 21.375 38.3 L 20.684 38.418 L 21.011 37.798 L 20.684 37.177 L 21.375 37.296 L 21.865 36.794 L 21.966 37.488 L 22.594 37.798 Z " fill="rgb(255,255,255)"/><path d=" M 35.37 32.941 L 34.886 33.054 L 34.558 33.425 L 34.301 33.001 L 33.846 32.803 L 34.171 32.427 L 34.219 31.934 L 34.676 32.126 L 35.16 32.019 L 35.118 32.514 L 35.37 32.941 Z " fill="rgb(255,255,255)"/><path d=" M 33.152 47.089 L 32.692 47.136 L 32.313 47.4 L 32.127 46.977 L 31.758 46.697 L 32.103 46.389 L 32.255 45.953 L 32.654 46.185 L 33.116 46.195 L 33.018 46.647 L 33.152 47.089 Z " fill="rgb(255,255,255)"/><path d=" M 15.943 48.25 L 15.374 48.351 L 15.058 48.835 L 14.786 48.325 L 14.229 48.174 L 14.63 47.758 L 14.601 47.181 L 15.12 47.434 L 15.66 47.228 L 15.58 47.8 L 15.943 48.25 Z " fill="rgb(255,255,255)"/><path d=" M 30.09 53.952 L 29.401 53.823 L 28.904 54.317 L 28.814 53.622 L 28.19 53.302 L 28.824 53.002 L 28.935 52.309 L 29.417 52.819 L 30.109 52.711 L 29.774 53.326 L 30.09 53.952 Z " fill="rgb(255,255,255)"/><path d=" M 22.594 19.427 L 22.061 19.46 L 21.682 19.838 L 21.485 19.341 L 21.009 19.097 L 21.421 18.756 L 21.506 18.228 L 21.957 18.515 L 22.485 18.432 L 22.352 18.95 L 22.594 19.427 Z " fill="rgb(255,255,255)"/><path d=" M 24.495 42.971 L 23.803 43.313 L 23.692 44.076 L 23.154 43.524 L 22.394 43.654 L 22.753 42.971 L 22.394 42.289 L 23.154 42.419 L 23.692 41.867 L 23.803 42.63 L 24.495 42.971 Z " fill="rgb(255,255,255)"/><path d=" M 39.276 45.611 L 38.336 45.449 L 37.67 46.132 L 37.534 45.188 L 36.679 44.766 L 37.534 44.344 L 37.672 43.4 L 38.337 44.083 L 39.277 43.923 L 38.833 44.767 L 39.276 45.611 Z " fill="rgb(255,255,255)"/><path d=" M 38.854 55.324 L 38.273 55.555 L 38.097 56.155 L 37.697 55.674 L 37.073 55.692 L 37.407 55.163 L 37.197 54.575 L 37.802 54.729 L 38.298 54.348 L 38.338 54.971 L 38.854 55.324 Z " fill="rgb(255,255,255)"/><path d=" M 23.122 25.128 L 22.589 25.162 L 22.21 25.539 L 22.013 25.042 L 21.537 24.799 L 21.949 24.458 L 22.033 23.93 L 22.485 24.216 L 23.013 24.133 L 22.88 24.651 L 23.122 25.128 Z " fill="rgb(255,255,255)"/><path d=" M 35.686 26.078 L 34.996 26.106 L 34.628 26.69 L 34.388 26.043 L 33.719 25.873 L 34.261 25.445 L 34.216 24.756 L 34.79 25.139 L 35.431 24.883 L 35.245 25.548 L 35.686 26.078 Z " fill="rgb(255,255,255)"/><path d=" M 28.19 34.103 L 27.659 33.661 L 26.995 33.848 L 27.251 33.206 L 26.868 32.632 L 27.557 32.677 L 27.985 32.135 L 28.154 32.805 L 28.802 33.044 L 28.218 33.413 L 28.19 34.103 Z " fill="rgb(255,255,255)"/><path d=" M 42.866 14.359 L 41.924 14.511 L 41.516 15.373 L 41.08 14.524 L 40.135 14.402 L 40.807 13.725 L 40.631 12.788 L 41.482 13.219 L 42.319 12.762 L 42.173 13.704 L 42.866 14.359 Z " fill="rgb(255,255,255)"/><path d=" M 31.357 38.643 L 30.605 38.545 L 30.098 39.109 L 29.959 38.363 L 29.266 38.055 L 29.932 37.692 L 30.011 36.938 L 30.562 37.459 L 31.303 37.301 L 30.978 37.986 L 31.357 38.643 Z " fill="rgb(255,255,255)"/><path d=" M 16.048 14.359 L 15.391 14.295 L 14.963 14.798 L 14.821 14.152 L 14.21 13.9 L 14.78 13.566 L 14.831 12.908 L 15.325 13.346 L 15.967 13.191 L 15.702 13.796 L 16.048 14.359 Z " fill="rgb(255,255,255)"/><path d=" M 38.959 21.011 L 38.269 21.038 L 37.901 21.622 L 37.661 20.975 L 36.992 20.805 L 37.534 20.377 L 37.489 19.688 L 38.063 20.071 L 38.704 19.815 L 38.518 20.48 L 38.959 21.011 Z " fill="rgb(255,255,255)"/><path d=" M 19.638 52.474 L 18.918 52.282 L 18.351 52.766 L 18.311 52.022 L 17.676 51.633 L 18.371 51.365 L 18.544 50.64 L 19.014 51.219 L 19.757 51.16 L 19.352 51.785 L 19.638 52.474 Z " fill="rgb(255,255,255)"/></svg>