<?xml version="1.0" encoding="UTF-8" standalone="no"?><!-- Generator: Gravit.io --><svg xmlns="http://www.w3.org/2000/svg" xmlns:xlink="http://www.w3.org/1999/xlink" style="isolation:isolate" viewBox="0 0 60 70" width="60pt" height="70pt"><g><g><path d=" M 25.966 38.693 L 13.15 11.637 L 22.011 11.637 L 34.927 38.693 L 25.966 38.693 Z " fill="rgb(147,74,255)"/><path d=" M 21.533 12.389 L 33.734 37.942 L 26.442 37.942 L 14.335 12.389 L 21.534 12.389 M 22.484 10.886 L 11.963 10.886 L 25.491 39.445 L 36.118 39.445 L 22.484 10.886 Z " fill="rgb(126,65,218)"/><path d=" M 25.074 38.693 L 37.991 11.637 L 46.851 11.637 L 34.034 38.693 L 25.074 38.693 Z " fill="rgb(147,74,255)"/><path d=" M 45.665 12.389 L 33.558 37.942 L 26.266 37.942 L 38.467 12.389 L 45.665 12.389 Z  M 48.037 10.886 L 37.516 10.886 L 23.882 39.445 L 34.509 39.445 L 48.037 10.886 Z " fill="rgb(126,65,218)"/><path d=" M 18.917 34.156 L 42.966 39.268 C 44.549 39.604 45.561 41.162 45.225 42.746 L 42.239 56.791 C 41.903 58.374 40.344 59.386 38.761 59.05 L 14.713 53.938 C 13.13 53.601 12.118 52.043 12.454 50.46 L 15.439 36.414 C 15.776 34.831 17.334 33.819 18.917 34.156 Z " fill="rgb(126,65,218)"/><path d=" M 18.917 34.156 L 42.966 39.268 C 44.549 39.604 45.561 41.162 45.225 42.746 L 42.239 56.791 C 41.903 58.374 40.344 59.386 38.761 59.05 L 14.713 53.938 C 13.13 53.601 12.118 52.043 12.454 50.46 L 15.439 36.414 C 15.776 34.831 17.334 33.819 18.917 34.156 Z " fill="none"/></g><g><rect x="25.735" y="40.788" width="2.025" height="10.662" transform="matrix(0.97,0.242,-0.242,0.97,11.952,-5.101)" fill="rgb(147,74,255)"/><rect x="29.46" y="41.819" width="2.025" height="10.662" transform="matrix(0.97,0.242,-0.242,0.97,12.312,-5.971)" fill="rgb(147,74,255)"/><path d="M 24.39 39.356 L 35.76 42.191 C 36.155 42.289 36.391 42.641 36.289 42.975 L 36.289 42.975 C 36.186 43.31 35.782 43.501 35.388 43.403 L 24.017 40.568 C 23.623 40.47 23.386 40.118 23.489 39.784 L 23.489 39.784 C 23.592 39.449 23.995 39.258 24.39 39.356 Z" style="stroke:none;fill:#934AFF;stroke-miterlimit:10;"/><path d="M 21.823 49.519 L 33.077 52.325 C 33.471 52.423 33.681 52.77 33.545 53.099 L 33.545 53.099 C 33.408 53.428 32.977 53.615 32.583 53.517 L 21.329 50.711 C 20.935 50.613 20.726 50.266 20.862 49.937 L 20.862 49.937 C 20.998 49.608 21.429 49.421 21.823 49.519 Z" style="stroke:none;fill:#934AFF;stroke-miterlimit:10;"/></g></g></svg>